<svg width="653" height="714" viewBox="0 0 653 714" fill="none" xmlns="http://www.w3.org/2000/svg">
<path d="M600.685 538.928C616.285 516.528 628.519 533.261 632.685 544.428C632.613 550.59 631.587 555.521 629.867 559.428C634.404 560.316 643.842 560.021 648.975 552.928L650.685 549.928C650.195 551.042 649.619 552.038 648.975 552.928C643.842 560.021 634.404 560.316 629.867 559.428C622.101 577.077 600.194 573.84 588.185 568.928L595.685 542.428H599.659C599.914 541.146 600.28 539.95 600.685 538.928Z" fill="#F3D2CD"/>
<path d="M620.318 549.928C622.004 553.632 620.891 556.928 612.185 556.928C599.815 556.928 598.417 548.668 599.659 542.428M620.318 549.928C619.116 547.287 616.493 544.439 614.185 542.428C617.902 546.428 619.822 549.094 620.318 549.928ZM629.867 559.428C622.101 577.077 600.194 573.84 588.185 568.928L595.685 542.428H599.659M629.867 559.428C631.587 555.521 632.613 550.59 632.685 544.428C628.519 533.261 616.285 516.528 600.685 538.928C600.28 539.95 599.914 541.146 599.659 542.428M629.867 559.428C634.404 560.316 643.842 560.021 648.975 552.928M648.975 552.928C649.619 552.038 650.195 551.042 650.685 549.928L648.975 552.928Z" stroke="black" stroke-width="5"/>
<path d="M187.185 681.428C165.185 661.028 149.019 614.928 143.685 594.428C119.572 572.002 108.42 542.029 103.986 516.428C36.7872 478.428 13.6854 416.428 6.18545 391.428C0.185447 371.428 16.0188 374.094 24.6854 377.928C21.1854 350.928 24.6854 351.928 40.1854 360.428C52.5854 367.228 86.6855 386.261 102.185 394.928C20.9855 326.928 55.6855 251.261 83.1854 221.928C84.7854 202.328 93.5188 178.428 97.6855 168.928C57.6855 166.928 23.1855 86.9277 47.1855 78.9277C66.3855 72.5277 75.5188 65.261 77.6854 62.4277C108.885 30.8277 174.352 32.5943 203.185 37.4277C329.185 -28.9723 430.352 16.761 465.185 47.9276C479.985 42.7276 506.685 44.4276 518.185 45.9276C537.685 46.4276 557.185 56.9276 576.685 56.9276C592.285 56.9276 600.185 62.261 602.185 64.9276C620.985 101.728 593.019 159.261 576.685 183.428C611.485 279.028 591.185 329.928 576.685 343.428C578.285 345.028 581.019 350.761 582.185 353.428C607.685 415.428 600.185 513.428 601.185 503.428C602.185 493.428 603.685 548.928 566.685 605.928C529.685 662.928 530.185 666.928 510.185 690.928C490.185 714.928 478.185 712.428 471.685 705.928C466.485 700.728 461.185 702.094 459.185 703.428C444.385 713.028 441.019 705.761 441.185 700.928C442.685 685.761 434.985 656.928 392.185 662.928C349.385 668.928 291.352 662.094 267.685 657.928C265.185 679.928 238.185 718.928 224.185 703.428C212.985 691.028 203.519 694.928 200.185 698.428C183.385 714.828 184.519 693.928 187.185 681.428Z" fill="#F3D2CD"/>
<path d="M102.185 474.928C101.06 484.592 101.065 499.561 103.986 516.428M576.685 343.428C578.285 345.028 581.019 350.761 582.185 353.428C607.685 415.428 600.185 513.428 601.185 503.428C602.185 493.428 603.685 548.928 566.685 605.928C529.685 662.928 530.185 666.928 510.185 690.928C490.185 714.928 478.185 712.428 471.685 705.928C466.485 700.728 461.185 702.094 459.185 703.428C444.385 713.028 441.019 705.761 441.185 700.928C442.685 685.761 434.985 656.928 392.185 662.928C349.385 668.928 291.352 662.094 267.685 657.928C265.185 679.928 238.185 718.928 224.185 703.428C212.985 691.028 203.519 694.928 200.185 698.428C183.385 714.828 184.519 693.928 187.185 681.428C165.185 661.028 149.019 614.928 143.685 594.428C119.572 572.002 108.42 542.029 103.986 516.428M576.685 343.428C574.549 347.865 564.473 360.371 541.185 375.291M576.685 343.428C591.185 329.928 611.485 279.028 576.685 183.428C593.019 159.261 620.985 101.728 602.185 64.9276C600.185 62.261 592.285 56.9276 576.685 56.9276C557.185 56.9276 537.685 46.4276 518.185 45.9276C506.685 44.4276 479.985 42.7276 465.185 47.9276C430.352 16.761 329.185 -28.9723 203.185 37.4277C174.352 32.5943 108.885 30.8277 77.6854 62.4277C75.5188 65.261 66.3855 72.5277 47.1855 78.9277C23.1855 86.9277 57.6855 166.928 97.6855 168.928C93.5188 178.428 84.7854 202.328 83.1854 221.928C55.6855 251.261 20.9855 326.928 102.185 394.928C86.6855 386.261 52.5854 367.228 40.1854 360.428C24.6854 351.928 21.1854 350.928 24.6854 377.928C16.0188 374.094 0.185447 371.428 6.18545 391.428C13.6854 416.428 36.7872 478.428 103.986 516.428M541.185 375.291C540.855 375.502 540.521 375.715 540.185 375.928C543.385 373.853 542.185 374.639 541.185 375.291Z" stroke="black" stroke-width="6.7"/>
<path d="M63.2036 88.0569C45.6624 88.8542 49.7757 113.97 54.025 126.428C39.2374 112.475 40.7672 80.0838 51.4754 78.0905C60.0421 76.4959 78.8411 64.4697 87.1697 58.656C129.187 35.1352 177.765 36.5637 196.802 40.2181C187.114 38.7231 160.088 37.6268 129.493 45.2013C91.2491 54.6694 85.1301 87.0603 63.2036 88.0569Z" fill="white" fill-opacity="0.8"/>
<path d="M457.371 48.6896C360.282 -12.7036 246.944 20.7836 202.411 45.2013C319.693 -39.0151 459.41 39.2215 466.039 45.6996C472.668 52.1778 469.609 51.6795 468.589 54.1711C467.773 56.1644 460.77 51.3473 457.371 48.6896Z" fill="white" fill-opacity="0.8"/>
<path d="M254.685 679.428C236.285 685.828 201.685 680.761 186.685 677.428C190.285 682.628 190.185 687.594 189.685 689.428C186.085 703.028 192.519 700.761 196.185 697.928C205.385 691.528 215.019 695.261 218.685 697.928C235.085 708.728 249.519 690.094 254.685 679.428Z" fill="#BA6B5E"/>
<path d="M511.185 684.428C497.185 690.028 460.352 686.761 443.685 684.428C445.185 695.428 443.685 710.428 451.685 702.428C458.085 696.028 469.019 699.761 473.685 702.428C481.285 712.428 501.852 694.594 511.185 684.428Z" fill="#BA6B5E"/>
<path d="M593.685 523.428C591.285 530.228 552.685 531.928 533.685 531.928C543.685 558.428 549.185 565.428 555.685 552.428C560.885 542.028 570.185 548.094 574.185 552.428C582.185 568.028 590.519 539.594 593.685 523.428Z" fill="#BA6B5E"/>
<path d="M52.6854 370.928C51.8854 390.528 27.0188 407.761 14.6854 413.928C9.68545 401.428 1.68545 373.428 17.6854 378.928C30.4854 383.328 30.0188 377.094 28.1854 373.428C21.7854 349.028 41.8521 361.594 52.6854 370.928Z" fill="#BA6B5E"/>
<path d="M254.685 679.428C236.285 685.828 201.685 680.761 186.685 677.428C190.285 682.628 190.185 687.594 189.685 689.428C186.085 703.028 192.519 700.761 196.185 697.928C205.385 691.528 215.019 695.261 218.685 697.928C235.085 708.728 249.519 690.094 254.685 679.428Z" stroke="#BA7264" stroke-width="3"/>
<path d="M511.185 684.428C497.185 690.028 460.352 686.761 443.685 684.428C445.185 695.428 443.685 710.428 451.685 702.428C458.085 696.028 469.019 699.761 473.685 702.428C481.285 712.428 501.852 694.594 511.185 684.428Z" stroke="#BA7264" stroke-width="3"/>
<path d="M593.685 523.428C591.285 530.228 552.685 531.928 533.685 531.928C543.685 558.428 549.185 565.428 555.685 552.428C560.885 542.028 570.185 548.094 574.185 552.428C582.185 568.028 590.519 539.594 593.685 523.428Z" stroke="#BA7264" stroke-width="3"/>
<path d="M52.6854 370.928C51.8854 390.528 27.0188 407.761 14.6854 413.928C9.68545 401.428 1.68545 373.428 17.6854 378.928C30.4854 383.328 30.0188 377.094 28.1854 373.428C21.7854 349.028 41.8521 361.594 52.6854 370.928Z" stroke="#BA7264" stroke-width="3"/>
<path d="M17.6854 420.928C11.5188 411.261 0.185444 389.628 4.18544 380.428C4.68544 378.094 7.58544 373.628 15.1854 374.428C24.6854 375.428 27.1854 380.928 23.1854 366.928C22.1854 360.928 23.6854 350.928 37.6854 358.928C51.6854 366.928 60.5188 371.594 63.1854 372.928" stroke="black" stroke-width="6.7"/>
<path d="M296.685 336.928L231.685 335.428C231.685 356.228 245.685 365.761 252.685 367.928C289.485 375.128 297.352 350.261 296.685 336.928Z" fill="#923C2B" stroke="#923C2B" stroke-width="3"/>
<path d="M318.185 264.428C263.785 209.628 215.852 244.594 198.685 268.928C186.685 285.728 193.685 309.261 198.685 318.928C219.885 342.128 247.519 338.594 258.685 333.928C284.185 343.428 318.185 343.928 327.185 315.428C334.385 292.628 324.185 271.928 318.185 264.428Z" fill="#EFAA9B" stroke="#A4554E" stroke-width="5"/>
<path d="M244.669 363.639C255.552 372.288 280.838 381.658 294.92 349.946C283.844 345.378 258.287 341.722 244.669 363.639Z" fill="#D06C5D" stroke="#D06C5D" stroke-width="3"/>
<g style="mix-blend-mode:luminosity" opacity="0.6">
<path d="M221.185 330.428C206.019 325.761 181.185 306.628 203.185 267.428C217.519 246.094 259.785 215.528 314.185 263.928C320.185 269.594 330.985 286.228 326.185 307.428C320.185 333.928 301.185 337.428 290.685 337.928" stroke="white" stroke-width="3"/>
</g>
<ellipse opacity="0.8" cx="120.685" cy="293.928" rx="51.5" ry="44.5" fill="#F0B2A7"/>
<ellipse opacity="0.8" cx="120.685" cy="293.928" rx="51.5" ry="44.5" fill="#F0B2A7"/>
<ellipse opacity="0.8" cx="418.685" cy="315.928" rx="51.5" ry="44.5" fill="#F0B2A7"/>
<path d="M376.185 294.428C394.685 303.928 432.185 291.928 425.685 249.428C421.196 220.072 401.97 208.98 389.185 206.176C384.852 203.926 373.385 204.128 362.185 222.928C348.185 246.428 357.685 284.928 376.185 294.428Z" fill="black"/>
<path d="M383.685 205.428C385.302 205.496 387.163 205.732 389.185 206.176M389.185 206.176C401.97 208.98 421.196 220.072 425.685 249.428C432.185 291.928 394.685 303.928 376.185 294.428C357.685 284.928 348.185 246.428 362.185 222.928C373.385 204.128 384.852 203.926 389.185 206.176Z" stroke="black"/>
<path d="M166.989 277.17C147.732 282.932 114.882 264.072 129.4 223.783C139.428 195.954 159.682 188.775 172.246 188.468C176.761 187.095 187.492 189.473 194.292 209.974C202.791 235.599 186.247 271.408 166.989 277.17Z" fill="black"/>
<path d="M177.56 188.784C176.028 188.543 174.233 188.42 172.246 188.468M172.246 188.468C159.682 188.775 139.428 195.954 129.4 223.783C114.882 264.072 147.732 282.932 166.989 277.17C186.247 271.408 202.791 235.599 194.292 209.974C187.492 189.473 176.761 187.095 172.246 188.468Z" stroke="black"/>
<ellipse cx="380.844" cy="225.263" rx="14.5" ry="12.8803" transform="rotate(-22.5844 380.844 225.263)" fill="#D9D9D9"/>
<ellipse cx="176.557" cy="208.552" rx="14.5" ry="12.8803" transform="rotate(38.8022 176.557 208.552)" fill="#D9D9D9"/>
<path d="M102.685 472.928C101.085 480.128 102.019 499.928 102.685 508.928C103.485 512.928 101.685 511.928 100.685 510.928C55.4854 484.928 29.8521 443.094 22.6854 425.428C54.2854 476.628 89.1854 478.428 102.685 472.928Z" fill="#E6B7AD" fill-opacity="0.8"/>
<path d="M524.185 374.928C545.385 362.128 573.019 329.594 584.185 314.928C584.185 325.328 577.185 342.261 573.685 349.428C577.185 359.928 579.185 357.928 584.185 407.428C589.185 456.928 580.685 425.428 577.185 410.428C574.385 398.428 557.352 392.094 549.185 390.428C532.019 390.594 502.985 387.728 524.185 374.928Z" fill="#E6B7AD" fill-opacity="0.8"/>
<path d="M526.685 550.928C527.885 544.528 509.852 503.928 500.685 484.428C517.685 502.928 528.185 538.928 538.685 558.928C547.085 574.928 559.185 562.261 564.185 553.928C577.385 567.128 583.019 566.094 584.185 563.928C586.985 574.328 537.019 648.928 511.685 684.928L487.264 686.423C487.235 686.429 487.209 686.431 487.185 686.428C484.385 686.028 456.685 686.261 443.185 686.428L439.685 677.928C436.019 670.094 421.285 655.628 391.685 660.428C362.085 665.228 295.352 658.428 265.685 654.428C264.519 661.094 261.485 675.128 258.685 677.928C256.28 680.333 239.185 681.189 227.442 681.382C225.928 681.64 224.185 681.672 222.185 681.428C223.735 681.428 225.516 681.414 227.442 681.382C238.342 679.523 237.381 665.891 235.185 658.428C211.585 647.228 209.019 640.428 210.685 638.428C235.185 631.428 227.685 642.428 288.685 645.428C349.685 648.428 393.185 634.928 420.685 642.428C442.685 648.428 444.852 674.261 443.185 686.428C456.685 686.261 484.385 686.028 487.185 686.428L487.264 686.423C490.805 685.642 539.888 614.63 564.185 578.928C541.185 582.428 525.185 558.928 526.685 550.928Z" fill="#E6B7AD" fill-opacity="0.8"/>
<path d="M525.185 150.428L458.185 106.428C473.385 128.828 509.185 170.094 525.185 187.928V150.428Z" fill="#E6B7AD" fill-opacity="0.8"/>
<path d="M124.627 112.737C94.617 115.275 67.3158 105.03 57.4165 99.5907C53.6652 96.6895 53.0747 99.8929 53.2484 101.857C51.5811 141.749 83.4673 156.859 99.6187 159.428L103.787 155.348C112.297 141.749 128.379 114.187 124.627 112.737Z" fill="#EDA398" stroke="#B15D53"/>
<path d="M522.185 179.928L492.185 124.428C507.685 129.428 562.185 122.428 578.185 93.9276C590.985 71.1277 595.185 79.761 595.685 86.9276C600.085 139.328 581.852 174.428 572.185 185.428C556.352 197.261 524.885 217.928 525.685 205.928C526.485 193.928 523.685 183.594 522.185 179.928Z" fill="#EDA398" stroke="#B15D53"/>
<path d="M456.185 103.428C463.909 110.552 476.019 118.313 490.685 122.572M592.989 79.9277C589.974 76.8947 585.586 83.3871 583.185 88.4277C551.146 126.619 516.848 130.168 490.685 122.572M592.989 79.9277C594.161 81.1067 595.126 83.7251 595.685 88.4277C595.042 84.8277 593.62 81.261 592.989 79.9277ZM490.685 122.572C504.685 143.357 531.285 188.528 525.685 202.928C520.548 216.139 547.562 201.462 565.185 190.326M565.185 190.326C566.772 189.323 568.282 188.35 569.685 187.428L565.185 190.326Z" stroke="#B15D53" stroke-width="5"/>
<path d="M173.685 73.9277C168.023 86.4536 155.153 102.831 135.158 110.428M54.082 101.928C51.3382 94.4269 56.5464 96.0443 59.6854 97.9277C91.1288 116.949 116.309 117.589 135.158 110.428M54.082 101.928C54.2519 102.392 54.4522 102.891 54.6854 103.428C53.9341 101.428 53.9701 101.594 54.082 101.928ZM135.158 110.428C124.382 120.419 102.899 144.538 99.1208 164.428M99.1208 164.428C98.9286 165.439 98.7822 166.44 98.6854 167.428L99.1208 164.428Z" stroke="#B15D53" stroke-width="5"/>
<path d="M232.685 267.928C234.585 267.928 236.785 269.288 238.65 272.532C240.476 275.708 241.685 280.262 241.685 285.428C241.685 290.593 240.476 295.147 238.65 298.323C236.785 301.567 234.585 302.928 232.685 302.928C230.786 302.928 228.586 301.567 226.721 298.323C224.894 295.147 223.685 290.593 223.685 285.428C223.685 280.262 224.894 275.708 226.721 272.532C228.586 269.288 230.786 267.928 232.685 267.928Z" fill="#CE8679" stroke="#BB7367" stroke-width="5"/>
<path d="M279.685 269.928C281.585 269.928 283.785 271.288 285.65 274.532C287.476 277.708 288.685 282.262 288.685 287.428C288.685 292.593 287.476 297.147 285.65 300.323C283.785 303.567 281.585 304.928 279.685 304.928C277.786 304.928 275.586 303.567 273.721 300.323C271.894 297.147 270.685 292.593 270.685 287.428C270.685 282.262 271.894 277.708 273.721 274.532C275.586 271.288 277.786 269.928 279.685 269.928Z" fill="#CE8679" stroke="#BB7367" stroke-width="5"/>
<path d="M504.685 483.148C516.533 508.731 540.929 560.098 543.733 560.906C547.237 561.916 550.741 568.985 561.755 551.312C562.923 550.471 566.561 550.505 571.767 557.371C578.275 565.955 586.785 559.391 587.286 557.371C587.786 555.352 597.798 529.096 599.801 521.522M599.801 521.522C601.403 515.463 600.468 514.285 599.801 514.453V521.522Z" stroke="black" stroke-width="7"/>
<path d="M593.185 520.428C594.019 518.094 595.585 509.128 595.185 491.928C594.685 470.428 591.185 459.428 595.185 457.928" stroke="#F3D2CD" stroke-width="6.7"/>
<path d="M597.685 459.928C597.685 408.328 584.019 364.761 577.185 349.428L574.685 351.928L583.185 430.928C588.019 462.094 597.685 511.528 597.685 459.928Z" fill="#E9BCB3"/>
<path d="M372.35 188.352C436.75 190.752 450.85 224.352 449.85 240.852C449.85 261.252 445.183 276.686 442.85 281.852C434.017 303.019 401.45 339.752 341.85 317.352C286.593 296.585 273.77 250.431 274.054 225.352C254.218 212.952 237.517 220.186 231.645 225.352C231.716 243.802 223.594 277.027 189.35 296.852C151.35 318.852 122.517 310.686 112.85 303.852C98.8501 296.852 72.7501 271.352 80.3501 225.352C87.9501 179.352 158.183 183.519 192.35 191.352C203.85 193.852 227.75 203.052 231.35 219.852C231.531 221.483 231.638 223.329 231.645 225.352C237.517 220.186 254.218 212.952 274.054 225.352C274.077 223.381 274.18 221.54 274.35 219.852C271.55 190.252 338.517 186.519 372.35 188.352Z" fill="#353535"/>
<path d="M589.85 258.852C593.683 254.186 597.35 244.052 581.35 240.852H449.85M449.85 240.852C450.85 224.352 436.75 190.752 372.35 188.352C338.517 186.519 271.55 190.252 274.35 219.852C274.18 221.54 274.077 223.381 274.054 225.352M449.85 240.852C449.85 261.252 445.183 276.686 442.85 281.852C434.017 303.019 401.45 339.752 341.85 317.352C286.593 296.585 273.77 250.431 274.054 225.352M231.645 225.352C231.638 223.329 231.531 221.483 231.35 219.852C227.75 203.052 203.85 193.852 192.35 191.352C158.183 183.519 87.9501 179.352 80.3501 225.352C72.7501 271.352 98.8501 296.852 112.85 303.852C122.517 310.686 151.35 318.852 189.35 296.852C223.594 277.027 231.716 243.802 231.645 225.352ZM231.645 225.352C237.517 220.186 254.218 212.952 274.054 225.352" stroke="black" stroke-width="5"/>
<path d="M182.35 189.852H219.85M319.85 189.852H311.35H295.35M268.35 189.852H286.85H295.35M268.35 189.852H219.85M268.35 189.852H295.35M210.85 197.852C206.517 195.186 202.25 189.852 219.85 189.852M295.35 196.352C299.183 194.852 304.55 191.452 295.35 189.852" stroke="black" stroke-width="5"/>
<path d="M174.35 190.352L101.35 291.852C94.8501 286.852 87.8501 273.852 85.8501 267.352L142.85 188.852L150.85 189.102L158.85 189.352L174.35 190.352Z" fill="#5D5C61" fill-opacity="0.8"/>
<path d="M188.85 192.852L110.85 299.352C113.35 301.852 120.017 305.019 123.35 305.852L200.35 196.352C195.35 194.352 193.35 194.352 188.85 192.852Z" fill="#5D5C61" fill-opacity="0.8"/>
<path d="M358.85 190.352L294.35 279.352C298.35 285.852 308.85 296.352 314.85 299.852L391.35 192.852C382.85 190.852 366.35 190.352 358.85 190.352Z" fill="#5D5C61" fill-opacity="0.8"/>
<path d="M408.85 196.852L328.85 308.852C332.85 311.252 337.517 313.186 339.35 313.852L419.85 201.352C415.85 199.352 412.85 198.352 408.85 196.852Z" fill="#5D5C61" fill-opacity="0.8"/>
<path d="M575.85 356.852L249.85 575.852L103.35 396.352C112.044 401.636 122.944 407.062 135.85 412.182C165.34 423.882 205.303 433.987 253.35 437.168C254.052 437.145 254.844 437.191 255.716 437.319C341.514 442.563 452.686 425.692 575.85 356.852Z" fill="#FCFDFC"/>
<path d="M135.85 412.182C122.944 407.062 112.044 401.636 103.35 396.352L249.85 575.852L575.85 356.852C451.551 426.327 339.466 442.869 253.35 437.168M135.85 412.182C152.35 431.072 190.95 470.352 213.35 476.352C218.85 462.967 234.55 436.392 253.35 437.168M135.85 412.182C165.34 423.882 205.303 433.987 253.35 437.168M253.35 437.168C261.683 436.896 282.75 446.352 300.35 486.352C327.879 479.184 375.783 465.837 401.85 456.047M401.85 456.047C411.923 452.264 418.735 449.012 419.85 446.852L401.85 456.047Z" stroke="black" stroke-width="4"/>
<path d="M252.85 437.352C262.45 435.352 276.517 449.186 282.35 456.352C277.925 470.735 273.04 476.397 266.85 478.584L281.85 522.352C279.35 522.852 249.85 554.852 249.35 554.352C248.95 553.952 234.517 529.186 227.35 516.852L242.35 478.175C233.682 473.501 228.844 460.187 227.35 452.852C238.55 439.252 249.017 436.852 252.85 437.352Z" fill="#7E1F29"/>
<path d="M242.35 478.175C233.682 473.501 228.844 460.187 227.35 452.852C238.55 439.252 249.017 436.852 252.85 437.352C262.45 435.352 276.517 449.186 282.35 456.352C277.925 470.735 273.04 476.397 266.85 478.584M242.35 478.175C244.318 479.236 246.482 479.852 248.85 479.852C255.999 479.852 261.85 480.351 266.85 478.584M242.35 478.175L227.35 516.852C234.517 529.186 248.95 553.952 249.35 554.352C249.85 554.852 279.35 522.852 281.85 522.352L266.85 478.584" stroke="black" stroke-width="4"/>
<path d="M269.85 532.852C305.35 504.852 320.35 484.352 450.85 425.852C555.25 379.052 578.683 354.019 577.35 347.352C579.056 352.175 580.959 358.078 582.927 364.852C594.226 403.733 607.707 471.305 598.85 527.852C597.183 536.519 594.35 555.852 596.35 563.852C592.825 565.575 588.814 567.427 584.35 569.375C587.85 574.898 525.85 671.852 516.35 684.352C508.75 694.352 461.85 692.852 439.35 690.852L438.35 686.352C435.35 655.352 388.35 662.852 339.35 664.352C318.347 664.995 296.979 662.318 279.31 658.873L277.35 659.864C272.386 663.704 265.198 677.219 261.85 684.352C253.05 691.152 209.517 687.186 188.85 684.352C172.45 671.152 153.35 621.923 145.85 598.959C129.64 593.87 117.306 588.733 115.85 584.852C116.683 580.519 116.45 564.952 108.85 537.352C106.962 530.497 105.694 523.375 104.886 516.352C86.0407 505.852 42.6501 474.652 19.8501 433.852C35.0167 422.019 65.6501 393.652 66.8501 374.852C82.0462 383.174 108.867 398.093 124.35 407.372C130.264 410.915 134.523 413.636 135.85 414.852C141.85 420.352 195.85 459.927 252.35 555.889C252.35 555.82 252.381 555.743 252.441 555.658C255.613 547.659 261.08 539.769 269.85 532.852Z" fill="#343A4A"/>
<path d="M254.35 601.352C249.762 592.061 245.379 573.723 252.35 555.889M254.35 601.352L295.35 623.852C418.407 627.905 532.245 592.111 584.35 569.375M254.35 601.352C249.517 606.186 238.75 616.352 234.35 618.352C230.629 620.044 179.76 609.605 145.85 598.959M598.85 527.852C581.85 532.852 544.05 540.852 528.85 532.852C521.918 519.543 509.081 493.985 504.5 481.852M598.85 527.852C607.707 471.305 594.226 403.733 582.927 364.852M598.85 527.852C597.183 536.519 594.35 555.852 596.35 563.852C592.825 565.575 588.814 567.427 584.35 569.375M504.5 481.852C503.573 479.4 502.985 477.496 502.85 476.352L504.5 481.852ZM582.927 364.852C580.959 358.078 579.056 352.175 577.35 347.352C578.683 354.019 555.25 379.052 450.85 425.852C320.35 484.352 305.35 504.852 269.85 532.852C260.996 539.836 255.508 547.811 252.35 555.889M582.927 364.852C568.352 378.019 535.731 406.752 521.85 416.352C504.5 428.352 457.85 459.352 450.85 473.852C432.517 472.852 395.55 471.152 394.35 472.352C392.85 473.852 411.35 500.852 410.35 503.352C409.35 505.852 252.35 550.927 252.35 555.889M252.35 555.889C195.85 459.927 141.85 420.352 135.85 414.852C134.523 413.636 130.264 410.915 124.35 407.372M252.35 555.889C218.85 532.71 151.55 486.352 150.35 486.352C149.15 486.352 159.183 471.019 164.35 463.352L130.35 455.852C123.95 448.252 123.683 420.365 124.35 407.372M103.843 486.352C104.187 477.457 105.037 470.04 105.85 465.352L103.843 486.352ZM103.843 486.352C103.497 495.284 103.662 505.705 104.886 516.352M104.886 516.352C105.694 523.375 106.962 530.497 108.85 537.352C116.45 564.952 116.683 580.519 115.85 584.852C117.306 588.733 129.64 593.87 145.85 598.959M104.886 516.352C86.0407 505.852 42.6501 474.652 19.8501 433.852C35.0167 422.019 65.6501 393.652 66.8501 374.852C82.0462 383.174 108.867 398.093 124.35 407.372M145.85 598.959C153.35 621.923 172.45 671.152 188.85 684.352C209.517 687.186 253.05 691.152 261.85 684.352C265.198 677.219 272.386 663.704 277.35 659.864M277.35 659.864C278.07 659.307 278.742 658.954 279.35 658.852L277.35 659.864ZM244.35 649.852C259.683 655.186 300.15 665.552 339.35 664.352C388.35 662.852 435.35 655.352 438.35 686.352L439.35 690.852C461.85 692.852 508.75 694.352 516.35 684.352C525.85 671.852 587.85 574.898 584.35 569.375" stroke="black" stroke-width="4"/>
<path d="M554.85 561.352C545.65 573.352 536.35 554.019 532.85 542.852H533.35C565.35 544.852 585.683 542.019 591.85 540.352V541.852C588.35 553.852 581.85 572.852 571.35 559.352C562.95 548.552 556.85 556.186 554.85 561.352Z" fill="#BA6B5E" stroke="black" stroke-width="4"/>
<path d="M531.85 542.352C530.25 539.152 529.517 534.686 529.35 532.852C554.95 537.652 585.017 531.852 596.85 528.352L595.85 538.352C590.85 544.852 533.85 546.352 531.85 542.352Z" fill="#FEFEFE"/>
<path d="M60.3501 372.352L66.8501 375.352C62.6866 392.006 47.2102 409.876 34.4755 421.852C30.0815 425.985 26.0139 429.415 22.8501 431.852L13.8501 421.852C42.2501 405.852 56.6834 382.186 60.3501 372.352Z" fill="#FEFEFE"/>
<path d="M531.85 542.352C530.25 539.152 529.517 534.686 529.35 532.852C554.95 537.652 585.017 531.852 596.85 528.352L595.85 538.352C590.85 544.852 533.85 546.352 531.85 542.352Z" stroke="black" stroke-width="4"/>
<path d="M60.3501 372.352L66.8501 375.352C62.6866 392.006 47.2102 409.876 34.4755 421.852C30.0815 425.985 26.0139 429.415 22.8501 431.852L13.8501 421.852C42.2501 405.852 56.6834 382.186 60.3501 372.352Z" stroke="black" stroke-width="4"/>
<path d="M239.85 643.852C222.25 640.652 230.183 647.186 236.35 650.852C247.263 661.012 243.986 677.868 240.507 686.352C251.432 686.752 258.288 684.186 260.35 682.852C261.95 677.652 270.35 665.352 274.35 659.852C271.95 660.252 253.017 654.686 243.85 651.852L245.35 648.352C263.35 654.852 293.35 659.352 306.35 660.852C319.15 662.852 337.683 662.352 345.35 661.852C354.517 661.352 377.85 660.352 397.85 660.352C417.85 660.352 429.517 667.352 432.85 670.852C421.85 650.352 411.85 649.352 358.85 653.852C316.45 657.452 261.85 648.686 239.85 643.852Z" fill="#262A38" fill-opacity="0.8"/>
<path d="M240.85 624.852C231.25 632.452 176.517 615.686 150.35 606.352L148.85 602.352C192.05 613.952 222.183 619.186 231.85 620.352C234.25 623.152 248.183 610.519 254.85 603.852L294.85 625.852C300.85 626.852 344.85 624.852 352.85 624.852C360.85 624.852 391.35 621.352 411.85 618.852C428.25 616.852 442.35 613.686 447.35 612.352C449.35 612.352 471.017 607.519 481.85 604.852C493.45 602.452 511.35 597.186 518.85 594.852C530.05 592.452 565.85 578.852 582.35 572.352C583.15 577.152 540.35 644.352 518.85 677.352C514.45 687.352 501.35 689.186 495.35 688.852C509.35 679.252 527.85 627.186 535.35 602.352C533.35 604.019 516.15 610.052 463.35 620.852C397.35 634.352 338.35 631.852 316.35 632.352C298.75 632.752 286.683 629.186 282.85 627.352L256.35 612.852C255.183 613.686 250.45 617.252 240.85 624.852Z" fill="#262A38" fill-opacity="0.8"/>
<path d="M523.35 589.352L530.35 578.352C524.411 574.64 510.835 518.678 503.45 485.199C503.361 484.944 503.326 484.79 503.35 484.747C503.383 484.897 503.416 485.048 503.45 485.199C504.851 489.247 519.669 518.737 527.35 533.852C527.35 538.252 529.683 542.686 530.85 544.352L533.85 551.852C540.35 563.852 542.85 566.852 550.35 566.852C557.85 566.852 555.35 556.852 563.35 555.852C570.85 558.352 568.35 562.852 576.85 566.352C586.05 566.752 592.35 549.852 594.35 541.352C593.55 544.952 594.017 557.186 594.35 562.852C592.35 566.452 546.183 582.019 523.35 589.352Z" fill="#262A38" fill-opacity="0.8"/>
<path d="M585.85 481.852C577.45 395.852 527.35 393.686 503.35 403.352C546.95 383.752 570.517 361.852 576.85 353.352C610.35 459.852 597.85 525.852 597.35 526.352C596.95 526.752 589.517 528.852 585.85 529.852C588.65 523.852 587.017 495.352 585.85 481.852Z" fill="#262A38" fill-opacity="0.8"/>
<path d="M104.35 464.852C100.75 469.652 101.85 498.852 102.85 512.852C69.2501 496.052 35.8501 453.519 23.3501 434.352C40.9501 458.752 79.3501 477.186 96.3501 483.352C99.5501 458.552 103.017 460.686 104.35 464.852Z" fill="#262A38" fill-opacity="0.8"/>
<path d="M192.35 467.852C199.55 473.452 210.017 477.519 214.35 478.852C215.15 474.466 222.683 462.691 226.35 457.352C229.55 469.352 236.683 476.686 239.85 478.852L238.35 479.352C235.15 479.352 229.683 469.352 227.35 464.352C225.35 464.352 219.85 478.686 217.35 485.852L202.85 480.352L192.35 467.852Z" fill="#D9D9D9"/>
<path d="M283.85 464.852C282.65 472.052 274.017 478.519 269.85 480.852L269.35 479.852C275.35 478.252 281.183 466.186 283.35 460.352C287.75 465.152 295.85 481.352 299.35 488.852L344.35 476.352L326.85 486.852L293.85 493.852C294.25 491.852 287.35 473.686 283.85 464.852Z" fill="#D9D9D9"/>
</svg>
