<svg width="653" height="714" viewBox="0 0 653 714" fill="none" xmlns="http://www.w3.org/2000/svg">
<path d="M600.685 538.928C616.285 516.528 628.519 533.261 632.685 544.428C632.613 550.59 631.587 555.521 629.867 559.428C634.404 560.316 643.842 560.021 648.975 552.928L650.685 549.928C650.195 551.042 649.619 552.038 648.975 552.928C643.842 560.021 634.404 560.316 629.867 559.428C622.101 577.077 600.194 573.84 588.185 568.928L595.685 542.428H599.659C599.914 541.146 600.28 539.95 600.685 538.928Z" fill="#F3D2CD"/>
<path d="M620.318 549.928C622.004 553.632 620.891 556.928 612.185 556.928C599.815 556.928 598.417 548.668 599.659 542.428M620.318 549.928C619.116 547.287 616.493 544.439 614.185 542.428C617.902 546.428 619.822 549.094 620.318 549.928ZM629.867 559.428C622.101 577.077 600.194 573.84 588.185 568.928L595.685 542.428H599.659M629.867 559.428C631.587 555.521 632.613 550.59 632.685 544.428C628.519 533.261 616.285 516.528 600.685 538.928C600.28 539.95 599.914 541.146 599.659 542.428M629.867 559.428C634.404 560.316 643.842 560.021 648.975 552.928M648.975 552.928C649.619 552.038 650.195 551.042 650.685 549.928L648.975 552.928Z" stroke="black" stroke-width="5"/>
<path d="M187.185 681.428C165.185 661.028 149.019 614.928 143.685 594.428C119.572 572.002 108.42 542.029 103.986 516.428C36.7872 478.428 13.6855 416.428 6.18548 391.428C0.185477 371.428 16.0188 374.094 24.6855 377.928C21.1855 350.928 24.6855 351.928 40.1855 360.428C52.5855 367.228 86.6855 386.261 102.185 394.928C20.9855 326.928 55.6855 251.261 83.1855 221.928C84.7855 202.328 93.5188 178.428 97.6855 168.928C57.6855 166.928 23.1855 86.9277 47.1855 78.9277C66.3855 72.5277 75.5188 65.261 77.6855 62.4277C108.885 30.8277 174.352 32.5943 203.185 37.4277C329.185 -28.9723 430.352 16.761 465.185 47.9276C479.986 42.7276 506.685 44.4276 518.185 45.9276C537.685 46.4276 557.185 56.9276 576.685 56.9276C592.286 56.9276 600.185 62.261 602.185 64.9276C620.985 101.728 593.019 159.261 576.685 183.428C611.485 279.028 591.185 329.928 576.685 343.428C578.286 345.028 581.019 350.761 582.185 353.428C607.685 415.428 600.185 513.428 601.185 503.428C602.185 493.428 603.685 548.928 566.685 605.928C529.685 662.928 530.185 666.928 510.185 690.928C490.185 714.928 478.185 712.428 471.685 705.928C466.486 700.728 461.185 702.094 459.185 703.428C444.385 713.028 441.019 705.761 441.185 700.928C442.685 685.761 434.985 656.928 392.185 662.928C349.385 668.928 291.352 662.094 267.685 657.928C265.185 679.928 238.185 718.928 224.185 703.428C212.985 691.028 203.519 694.928 200.185 698.428C183.385 714.828 184.519 693.928 187.185 681.428Z" fill="#F3D2CD"/>
<path d="M102.185 474.928C101.06 484.592 101.065 499.561 103.986 516.428M576.685 343.428C578.285 345.028 581.019 350.761 582.185 353.428C607.686 415.428 600.185 513.428 601.185 503.428C602.186 493.428 603.685 548.928 566.685 605.928C529.686 662.928 530.185 666.928 510.185 690.928C490.186 714.928 478.185 712.428 471.685 705.928C466.485 700.728 461.185 702.094 459.185 703.428C444.385 713.028 441.019 705.761 441.185 700.928C442.685 685.761 434.985 656.928 392.185 662.928C349.385 668.928 291.352 662.094 267.685 657.928C265.185 679.928 238.185 718.928 224.185 703.428C212.985 691.028 203.519 694.928 200.185 698.428C183.385 714.828 184.519 693.928 187.185 681.428C165.185 661.028 149.019 614.928 143.685 594.428C119.572 572.002 108.42 542.029 103.986 516.428M576.685 343.428C574.549 347.865 564.473 360.371 541.185 375.291M576.685 343.428C591.185 329.928 611.485 279.028 576.685 183.428C593.019 159.261 620.985 101.728 602.185 64.9276C600.185 62.261 592.285 56.9276 576.685 56.9276C557.185 56.9276 537.686 46.4276 518.185 45.9276C506.685 44.4276 479.985 42.7276 465.185 47.9276C430.352 16.761 329.185 -28.9723 203.185 37.4277C174.352 32.5943 108.885 30.8277 77.6855 62.4277C75.5188 65.261 66.3855 72.5277 47.1855 78.9277C23.1855 86.9277 57.6855 166.928 97.6855 168.928C93.5188 178.428 84.7855 202.328 83.1855 221.928C55.6855 251.261 20.9855 326.928 102.185 394.928C86.6855 386.261 52.5855 367.228 40.1855 360.428C24.6855 351.928 21.1855 350.928 24.6855 377.928C16.0188 374.094 0.185477 371.428 6.18548 391.428C13.6855 416.428 36.7872 478.428 103.986 516.428M541.185 375.291C540.855 375.502 540.521 375.715 540.185 375.928C543.385 373.853 542.185 374.639 541.185 375.291Z" stroke="black" stroke-width="6.7"/>
<path d="M63.2036 88.0569C45.6624 88.8542 49.7757 113.97 54.025 126.428C39.2374 112.475 40.7671 80.0838 51.4754 78.0905C60.0421 76.4959 78.8411 64.4697 87.1697 58.656C129.187 35.1352 177.765 36.5637 196.802 40.2181C187.114 38.7231 160.088 37.6268 129.493 45.2013C91.2491 54.6694 85.1301 87.0603 63.2036 88.0569Z" fill="white" fill-opacity="0.8"/>
<path d="M457.371 48.6896C360.282 -12.7036 246.944 20.7836 202.411 45.2013C319.693 -39.0151 459.41 39.2215 466.039 45.6996C472.668 52.1778 469.609 51.6795 468.589 54.1711C467.773 56.1644 460.77 51.3473 457.371 48.6896Z" fill="white" fill-opacity="0.8"/>
<path d="M254.685 679.428C236.285 685.828 201.685 680.761 186.685 677.428C190.285 682.628 190.185 687.594 189.685 689.428C186.085 703.028 192.519 700.761 196.185 697.928C205.385 691.528 215.019 695.261 218.685 697.928C235.085 708.728 249.519 690.094 254.685 679.428Z" fill="#BA6B5E"/>
<path d="M511.185 684.428C497.185 690.028 460.352 686.761 443.685 684.428C445.185 695.428 443.685 710.428 451.685 702.428C458.085 696.028 469.019 699.761 473.685 702.428C481.285 712.428 501.852 694.594 511.185 684.428Z" fill="#BA6B5E"/>
<path d="M593.685 523.428C591.285 530.228 552.685 531.928 533.685 531.928C543.685 558.428 549.185 565.428 555.685 552.428C560.885 542.028 570.185 548.094 574.185 552.428C582.185 568.028 590.519 539.594 593.685 523.428Z" fill="#BA6B5E"/>
<path d="M52.6855 370.928C51.8855 390.528 27.0188 407.761 14.6855 413.928C9.68546 401.428 1.68546 373.428 17.6855 378.928C30.4855 383.328 30.0188 377.094 28.1855 373.428C21.7855 349.028 41.8521 361.594 52.6855 370.928Z" fill="#BA6B5E"/>
<path d="M254.685 679.428C236.285 685.828 201.685 680.761 186.685 677.428C190.285 682.628 190.185 687.594 189.685 689.428C186.085 703.028 192.519 700.761 196.185 697.928C205.385 691.528 215.019 695.261 218.685 697.928C235.085 708.728 249.519 690.094 254.685 679.428Z" stroke="#BA7264" stroke-width="3"/>
<path d="M511.185 684.428C497.185 690.028 460.352 686.761 443.685 684.428C445.185 695.428 443.685 710.428 451.685 702.428C458.085 696.028 469.019 699.761 473.685 702.428C481.285 712.428 501.852 694.594 511.185 684.428Z" stroke="#BA7264" stroke-width="3"/>
<path d="M593.685 523.428C591.285 530.228 552.685 531.928 533.685 531.928C543.685 558.428 549.185 565.428 555.685 552.428C560.885 542.028 570.185 548.094 574.185 552.428C582.185 568.028 590.519 539.594 593.685 523.428Z" stroke="#BA7264" stroke-width="3"/>
<path d="M52.6855 370.928C51.8855 390.528 27.0188 407.761 14.6855 413.928C9.68546 401.428 1.68546 373.428 17.6855 378.928C30.4855 383.328 30.0188 377.094 28.1855 373.428C21.7855 349.028 41.8521 361.594 52.6855 370.928Z" stroke="#BA7264" stroke-width="3"/>
<path d="M17.6855 420.928C11.5188 411.261 0.185459 389.628 4.18546 380.428C4.68546 378.094 7.58546 373.628 15.1855 374.428C24.6855 375.428 27.1855 380.928 23.1855 366.928C22.1855 360.928 23.6855 350.928 37.6855 358.928C51.6855 366.928 60.5188 371.594 63.1855 372.928" stroke="black" stroke-width="6.7"/>
<path d="M296.685 336.928L231.685 335.428C231.685 356.228 245.685 365.761 252.685 367.928C289.485 375.128 297.352 350.261 296.685 336.928Z" fill="#923C2B" stroke="#923C2B" stroke-width="3"/>
<path d="M318.185 264.428C263.785 209.628 215.852 244.594 198.685 268.928C186.685 285.728 193.685 309.261 198.685 318.928C219.885 342.128 247.519 338.594 258.685 333.928C284.185 343.428 318.185 343.928 327.185 315.428C334.385 292.628 324.185 271.928 318.185 264.428Z" fill="#EFAA9B" stroke="#A4554E" stroke-width="5"/>
<path d="M244.669 363.639C255.552 372.288 280.838 381.658 294.92 349.946C283.844 345.378 258.287 341.722 244.669 363.639Z" fill="#D06C5D" stroke="#D06C5D" stroke-width="3"/>
<g style="mix-blend-mode:luminosity" opacity="0.6">
<path d="M221.185 330.428C206.019 325.761 181.185 306.628 203.185 267.428C217.519 246.094 259.785 215.528 314.185 263.928C320.185 269.594 330.985 286.228 326.185 307.428C320.185 333.928 301.185 337.428 290.685 337.928" stroke="white" stroke-width="3"/>
</g>
<ellipse opacity="0.8" cx="120.685" cy="293.928" rx="51.5" ry="44.5" fill="#F0B2A7"/>
<ellipse opacity="0.8" cx="120.685" cy="293.928" rx="51.5" ry="44.5" fill="#F0B2A7"/>
<ellipse opacity="0.8" cx="418.685" cy="315.928" rx="51.5" ry="44.5" fill="#F0B2A7"/>
<path d="M376.185 294.428C394.685 303.928 432.185 291.928 425.685 249.428C421.196 220.072 401.97 208.98 389.185 206.176C384.852 203.926 373.385 204.128 362.185 222.928C348.185 246.428 357.685 284.928 376.185 294.428Z" fill="black"/>
<path d="M383.685 205.428C385.302 205.496 387.163 205.732 389.185 206.176M389.185 206.176C401.97 208.98 421.196 220.072 425.685 249.428C432.185 291.928 394.685 303.928 376.185 294.428C357.685 284.928 348.185 246.428 362.185 222.928C373.385 204.128 384.852 203.926 389.185 206.176Z" stroke="black"/>
<path d="M166.989 277.17C147.732 282.932 114.882 264.072 129.4 223.783C139.428 195.954 159.682 188.775 172.246 188.468C176.761 187.095 187.492 189.473 194.292 209.974C202.791 235.599 186.247 271.408 166.989 277.17Z" fill="black"/>
<path d="M177.56 188.784C176.028 188.543 174.233 188.42 172.246 188.468M172.246 188.468C159.682 188.775 139.428 195.954 129.4 223.783C114.882 264.072 147.732 282.932 166.989 277.17C186.247 271.408 202.791 235.599 194.292 209.974C187.492 189.473 176.761 187.095 172.246 188.468Z" stroke="black"/>
<ellipse cx="380.844" cy="225.263" rx="14.5" ry="12.8803" transform="rotate(-22.5844 380.844 225.263)" fill="#D9D9D9"/>
<ellipse cx="176.557" cy="208.552" rx="14.5" ry="12.8803" transform="rotate(38.8022 176.557 208.552)" fill="#D9D9D9"/>
<path d="M102.685 472.928C101.085 480.128 102.019 499.928 102.685 508.928C103.485 512.928 101.685 511.928 100.685 510.928C55.4854 484.928 29.8521 443.094 22.6854 425.428C54.2854 476.628 89.1854 478.428 102.685 472.928Z" fill="#E6B7AD" fill-opacity="0.8"/>
<path d="M524.185 374.928C545.385 362.128 573.019 329.594 584.185 314.928C584.185 325.328 577.185 342.261 573.685 349.428C577.185 359.928 579.185 357.928 584.185 407.428C589.185 456.928 580.685 425.428 577.185 410.428C574.385 398.428 557.352 392.094 549.185 390.428C532.019 390.594 502.985 387.728 524.185 374.928Z" fill="#E6B7AD" fill-opacity="0.8"/>
<path d="M526.685 550.928C527.885 544.528 509.852 503.928 500.685 484.428C517.685 502.928 528.185 538.928 538.685 558.928C547.085 574.928 559.185 562.261 564.185 553.928C577.385 567.128 583.019 566.094 584.185 563.928C586.985 574.328 537.019 648.928 511.685 684.928L487.264 686.423C487.235 686.429 487.209 686.431 487.185 686.428C484.385 686.028 456.685 686.261 443.185 686.428L439.685 677.928C436.019 670.094 421.285 655.628 391.685 660.428C362.085 665.228 295.352 658.428 265.685 654.428C264.519 661.094 261.485 675.128 258.685 677.928C256.28 680.333 239.185 681.189 227.442 681.382C225.928 681.64 224.185 681.672 222.185 681.428C223.735 681.428 225.516 681.414 227.442 681.382C238.342 679.523 237.381 665.891 235.185 658.428C211.585 647.228 209.019 640.428 210.685 638.428C235.185 631.428 227.685 642.428 288.685 645.428C349.685 648.428 393.185 634.928 420.685 642.428C442.685 648.428 444.852 674.261 443.185 686.428C456.685 686.261 484.385 686.028 487.185 686.428L487.264 686.423C490.805 685.642 539.888 614.63 564.185 578.928C541.185 582.428 525.185 558.928 526.685 550.928Z" fill="#E6B7AD" fill-opacity="0.8"/>
<path d="M525.185 150.428L458.185 106.428C473.385 128.828 509.185 170.094 525.185 187.928V150.428Z" fill="#E6B7AD" fill-opacity="0.8"/>
<path d="M124.627 112.737C94.617 115.275 67.3158 105.03 57.4165 99.5907C53.6651 96.6895 53.0747 99.8929 53.2483 101.857C51.5811 141.749 83.4672 156.859 99.6187 159.428L103.787 155.348C112.297 141.749 128.379 114.187 124.627 112.737Z" fill="#EDA398" stroke="#B15D53"/>
<path d="M522.185 179.928L492.185 124.428C507.685 129.428 562.185 122.428 578.185 93.9276C590.985 71.1277 595.185 79.761 595.685 86.9276C600.085 139.328 581.852 174.428 572.185 185.428C556.352 197.261 524.885 217.928 525.685 205.928C526.485 193.928 523.685 183.594 522.185 179.928Z" fill="#EDA398" stroke="#B15D53"/>
<path d="M456.185 103.428C463.909 110.552 476.019 118.313 490.685 122.572M592.989 79.9277C589.974 76.8947 585.586 83.3871 583.185 88.4277C551.146 126.619 516.849 130.168 490.685 122.572M592.989 79.9277C594.161 81.1067 595.126 83.7251 595.685 88.4277C595.042 84.8277 593.62 81.261 592.989 79.9277ZM490.685 122.572C504.685 143.357 531.285 188.528 525.685 202.928C520.548 216.139 547.562 201.462 565.185 190.326M565.185 190.326C566.772 189.323 568.282 188.35 569.685 187.428L565.185 190.326Z" stroke="#B15D53" stroke-width="5"/>
<path d="M173.685 73.9277C168.023 86.4536 155.153 102.831 135.158 110.428M54.0821 101.928C51.3383 94.4269 56.5465 96.0443 59.6855 97.9277C91.1288 116.949 116.309 117.589 135.158 110.428M54.0821 101.928C54.2519 102.392 54.4523 102.891 54.6855 103.428C53.9341 101.428 53.9701 101.594 54.0821 101.928ZM135.158 110.428C124.382 120.419 102.899 144.538 99.1208 164.428M99.1208 164.428C98.9286 165.439 98.7823 166.44 98.6855 167.428L99.1208 164.428Z" stroke="#B15D53" stroke-width="5"/>
<path d="M232.685 267.928C234.585 267.928 236.785 269.288 238.65 272.532C240.476 275.708 241.685 280.262 241.685 285.428C241.685 290.593 240.476 295.147 238.65 298.323C236.785 301.567 234.585 302.928 232.685 302.928C230.786 302.928 228.586 301.567 226.721 298.323C224.894 295.147 223.685 290.593 223.685 285.428C223.685 280.262 224.894 275.708 226.721 272.532C228.586 269.288 230.786 267.928 232.685 267.928Z" fill="#CE8679" stroke="#BB7367" stroke-width="5"/>
<path d="M279.685 269.928C281.585 269.928 283.785 271.288 285.65 274.532C287.476 277.708 288.685 282.262 288.685 287.428C288.685 292.593 287.476 297.147 285.65 300.323C283.785 303.567 281.585 304.928 279.685 304.928C277.786 304.928 275.586 303.567 273.721 300.323C271.894 297.147 270.685 292.593 270.685 287.428C270.685 282.262 271.894 277.708 273.721 274.532C275.586 271.288 277.786 269.928 279.685 269.928Z" fill="#CE8679" stroke="#BB7367" stroke-width="5"/>
<path d="M504.685 483.148C516.533 508.731 540.929 560.098 543.733 560.906C547.237 561.916 550.741 568.985 561.755 551.312C562.923 550.471 566.561 550.505 571.767 557.371C578.275 565.955 586.785 559.391 587.286 557.371C587.786 555.352 597.799 529.096 599.801 521.522M599.801 521.522C601.403 515.463 600.468 514.285 599.801 514.453V521.522Z" stroke="black" stroke-width="7"/>
<path d="M593.185 520.428C594.019 518.094 595.585 509.128 595.185 491.928C594.685 470.428 591.185 459.428 595.185 457.928" stroke="#F3D2CD" stroke-width="6.7"/>
<path d="M597.685 459.928C597.685 408.328 584.019 364.761 577.185 349.428L574.685 351.928L583.185 430.928C588.019 462.094 597.685 511.528 597.685 459.928Z" fill="#E9BCB3"/>
</svg>
